<?xml version="1.0" encoding="UTF-8" standalone="no"?>
<!-- Created with Inkscape (http://www.inkscape.org/) -->

<svg
   version="1.1"
   id="svg1"
   width="1336"
   height="478.37466"
   viewBox="0 0 1336 478.37466"
   sodipodi:docname="Logo_PLN.ai"
   xmlns:inkscape="http://www.inkscape.org/namespaces/inkscape"
   xmlns:sodipodi="http://sodipodi.sourceforge.net/DTD/sodipodi-0.dtd"
   xmlns="http://www.w3.org/2000/svg"
   xmlns:svg="http://www.w3.org/2000/svg">
  <defs
     id="defs1">
    <clipPath
       clipPathUnits="userSpaceOnUse"
       id="clipPath2">
      <path
         d="M 0,358.781 H 1002 V 0 H 0 Z"
         transform="translate(-471.75201,-181.8027)"
         id="path2" />
    </clipPath>
    <clipPath
       clipPathUnits="userSpaceOnUse"
       id="clipPath4">
      <path
         d="M 0,358.781 H 1002 V 0 H 0 Z"
         id="path4" />
    </clipPath>
    <clipPath
       clipPathUnits="userSpaceOnUse"
       id="clipPath6">
      <path
         d="M 0,358.781 H 1002 V 0 H 0 Z"
         transform="translate(-72.926302,-228.4863)"
         id="path6" />
    </clipPath>
    <clipPath
       clipPathUnits="userSpaceOnUse"
       id="clipPath8">
      <path
         d="M 0,358.781 H 1002 V 0 H 0 Z"
         transform="translate(-72.926302,-172.3613)"
         id="path8" />
    </clipPath>
    <clipPath
       clipPathUnits="userSpaceOnUse"
       id="clipPath10">
      <path
         d="M 0,358.781 H 1002 V 0 H 0 Z"
         transform="translate(-72.926302,-116.2832)"
         id="path10" />
    </clipPath>
    <clipPath
       clipPathUnits="userSpaceOnUse"
       id="clipPath12">
      <path
         d="M 0,358.781 H 1002 V 0 H 0 Z"
         transform="translate(-169.2949,-38.439501)"
         id="path12" />
    </clipPath>
  </defs>
  <sodipodi:namedview
     id="namedview1"
     pagecolor="#ffffff"
     bordercolor="#000000"
     borderopacity="0.25"
     inkscape:showpageshadow="2"
     inkscape:pageopacity="0.0"
     inkscape:pagecheckerboard="0"
     inkscape:deskcolor="#d1d1d1">
    <inkscape:page
       x="0"
       y="0"
       inkscape:label="1"
       id="page1"
       width="1336"
       height="478.37466"
       margin="1.3333334"
       bleed="0" />
  </sodipodi:namedview>
  <g
     id="layer-MC0"
     inkscape:groupmode="layer"
     inkscape:label="Layer 1">
    <path
       id="path1"
       d="m 0,0 v 47.904 h 34.315 c 14.296,0 21.707,-9.633 21.707,-23.713 C 56.022,10.123 48.611,0 33.574,0 Z m 167.338,-91.594 h 127.537 v 37.03 H 210.512 V 84.934 H 167.349 V -91.594 h -0.012 z m 200.603,0 h 43.152 l -0.217,103.301 71.196,-103.301 h 47.176 V 84.934 h -43.151 l 0.091,-107.633 -74.605,107.633 h -43.642 z m -411.115,0 h 43.162 v 54.565 h 42.456 c 34.282,0 57.459,25.674 57.459,61.22 0,35.559 -23.177,60.743 -57.459,60.743 h -85.618 z"
       style="fill:#28a8e0;fill-opacity:1;fill-rule:nonzero;stroke:none"
       transform="matrix(1.3333333,0,0,-1.3333333,629.00267,235.97107)"
       clip-path="url(#clipPath2)" />
    <path
       id="path3"
       d="M 1,357.781 H 357.78 V 1 H 1 Z"
       style="fill:#f7e82e;fill-opacity:1;fill-rule:nonzero;stroke:none"
       transform="matrix(1.3333333,0,0,-1.3333333,0,478.37467)"
       clip-path="url(#clipPath4)" />
    <path
       id="path5"
       d="M 0,0 C 9.565,5.279 22.96,9.44 33.688,9.44 54.175,9.44 58.918,0 68.985,0 79.051,0 89.392,9.44 108.009,9.44 124.95,9.44 133.899,0 148.948,0 164.031,0 160.896,9.44 182.124,9.44 203.249,9.44 212.917,0 212.917,0 v -24.066 c 0,0 -11.275,10.045 -29.003,10.283 -17.591,0.205 -17.124,-10.283 -34.92,-10.283 -17.808,0 -19.233,10.283 -40.141,10.283 -20.898,0 -24.056,-10.283 -40.199,-10.283 -16.189,0 -19.221,10.705 -36.083,10.488 C 15.71,-13.783 0,-24.066 0,-24.066 Z"
       style="fill:#28a8e0;fill-opacity:1;fill-rule:nonzero;stroke:none"
       transform="matrix(1.3333333,0,0,-1.3333333,97.235067,173.72627)"
       clip-path="url(#clipPath6)" />
    <path
       id="path7"
       d="M 0,0 C 9.565,5.291 22.96,9.43 33.688,9.43 54.175,9.43 58.918,0 68.985,0 79.051,0 89.392,9.43 108.009,9.43 124.95,9.43 133.899,0 148.948,0 164.031,0 160.896,9.43 182.124,9.43 203.249,9.43 212.917,0 212.917,0 v -24.076 c 0,0 -11.275,10.111 -29.003,10.293 -17.591,0.172 -17.124,-10.293 -34.92,-10.293 -17.808,0 -19.233,10.293 -40.141,10.293 -20.898,0 -24.056,-10.293 -40.199,-10.293 -16.189,0 -19.221,10.681 -36.083,10.465 C 15.71,-13.783 0,-24.076 0,-24.076 Z"
       style="fill:#28a8e0;fill-opacity:1;fill-rule:nonzero;stroke:none"
       transform="matrix(1.3333333,0,0,-1.3333333,97.235067,248.5596)"
       clip-path="url(#clipPath8)" />
    <path
       id="path9"
       d="M 0,0 C 9.565,5.312 22.96,9.439 33.688,9.439 54.175,9.439 58.918,0 68.985,0 79.051,0 89.392,9.439 108.009,9.439 124.95,9.439 133.899,0 148.948,0 164.031,0 160.896,9.439 182.124,9.439 203.249,9.439 212.917,0 212.917,0 v -24.146 c 0,0 -11.275,10.123 -29.003,10.339 -17.591,0.184 -17.124,-10.339 -34.92,-10.339 -17.808,0 -19.233,10.339 -40.141,10.339 -20.898,0 -24.056,-10.339 -40.199,-10.339 -16.189,0 -19.221,10.716 -36.083,10.523 C 15.71,-13.807 0,-24.146 0,-24.146 Z"
       style="fill:#28a8e0;fill-opacity:1;fill-rule:nonzero;stroke:none"
       transform="matrix(1.3333333,0,0,-1.3333333,97.235067,323.3304)"
       clip-path="url(#clipPath10)" />
    <path
       id="path11"
       d="M 0,0 27.008,135.701 -68.95,93.496 -12.871,271.676 H 32.811 L -20.43,148.15 74.32,186.479 Z"
       style="fill:#e62a2b;fill-opacity:1;fill-rule:nonzero;stroke:none"
       transform="matrix(1.3333333,0,0,-1.3333333,225.72653,427.122)"
       clip-path="url(#clipPath12)" />
  </g>
</svg>
